<?xml version="1.0" standalone="no"?>
<!DOCTYPE svg PUBLIC "-//W3C//DTD SVG 20010904//EN"
 "http://www.w3.org/TR/2001/REC-SVG-20010904/DTD/svg10.dtd">
<svg version="1.0" xmlns="http://www.w3.org/2000/svg"
 width="500.000000pt" height="500.000000pt" viewBox="0 0 500.000000 500.000000"
 preserveAspectRatio="xMidYMid meet">
<metadata>
Created by potrace 1.14, written by Peter Selinger 2001-2017
</metadata>
<g transform="translate(0.000000,500.000000) scale(0.100000,-0.100000)"
fill="#000000" stroke="none">
<path d="M2270 4989 c-720 -74 -1348 -429 -1776 -1001 -471 -630 -614 -1457
-385 -2214 328 -1080 1360 -1817 2481 -1771 457 19 858 144 1249 389 589 370
1010 1004 1125 1693 183 1102 -378 2182 -1389 2670 -395 191 -879 277 -1305
234z m1770 -1468 c415 -238 765 -442 778 -454 22 -20 22 -27 20 -156 l-3 -136
-60 -38 c-33 -22 -544 -318 -1135 -659 -591 -340 -1235 -712 -1430 -825 -348
-203 -356 -206 -420 -210 l-65 -4 -775 447 c-426 246 -778 452 -782 458 -4 6
-8 70 -8 142 0 112 3 133 18 147 9 8 548 322 1197 697 649 375 1311 757 1470
850 160 92 297 170 305 173 8 4 42 5 75 4 60 -3 69 -8 815 -436z"/>
<path d="M2730 3674 c-107 -62 -657 -380 -1223 -706 l-1027 -592 42 -26 c113
-70 1530 -882 1546 -886 10 -3 117 53 257 134 558 322 1844 1063 2005 1155 96
55 181 105 188 111 9 9 -173 119 -773 465 -432 249 -794 455 -803 456 -9 2
-105 -48 -212 -111z m-295 -394 c4 -6 11 -8 16 -5 5 4 9 1 9 -4 0 -6 7 -11 15
-11 17 0 20 -16 5 -25 -5 -3 -10 -12 -10 -18 0 -7 7 -3 15 7 19 25 110 58 165
60 44 1 45 1 51 -39 4 -26 3 -43 -5 -47 -6 -4 -7 -8 -2 -8 6 0 1 -7 -10 -16
-10 -8 -13 -13 -6 -9 7 4 4 -12 -10 -39 -12 -25 -25 -43 -28 -41 -13 8 -30
-46 -24 -73 4 -19 3 -23 -4 -14 -13 19 -25 -29 -16 -64 5 -21 4 -25 -6 -19
-10 6 -12 -5 -6 -54 4 -35 3 -61 -2 -61 -16 0 6 -89 35 -143 16 -28 41 -63 57
-78 33 -29 30 -44 -13 -52 -53 -11 -163 -129 -146 -157 4 -6 1 -9 -6 -8 -22 5
-42 -72 -42 -157 0 -50 -3 -72 -8 -60 -4 12 -7 -13 -7 -65 0 -63 3 -76 8 -50
7 34 7 34 9 -13 1 -34 -2 -46 -11 -41 -8 5 -9 -2 -5 -25 5 -23 3 -30 -5 -25
-8 5 -9 1 -4 -12 4 -10 4 -15 0 -11 -10 10 -45 -23 -37 -36 3 -6 1 -7 -5 -3
-7 4 -12 2 -12 -4 0 -6 -5 -8 -10 -5 -6 4 -17 2 -24 -4 -9 -8 -22 -8 -39 -2
-14 5 -28 7 -32 3 -4 -4 -6 -2 -4 3 1 6 -1 18 -6 28 -7 17 -8 17 -21 0 -7 -10
-14 -13 -14 -8 0 6 -10 21 -21 35 -11 14 -17 19 -13 11 4 -9 3 -12 -4 -7 -6 4
-8 14 -5 23 5 12 3 14 -7 8 -9 -5 -11 -4 -6 4 9 14 -2 53 -14 46 -4 -3 -7 3
-6 13 1 12 -13 21 -46 32 -46 15 -47 16 -51 60 l-3 45 -2 -52 -2 -51 -42 6
c-26 3 -48 13 -57 24 -8 12 -21 18 -32 15 -11 -3 -17 -1 -13 4 5 8 -10 13 -29
10 -5 -1 -6 3 -3 8 4 5 1 13 -5 17 -7 4 -9 19 -5 37 6 29 5 30 -8 12 -14 -18
-15 -10 -16 83 0 75 -4 112 -16 134 -16 30 -15 32 7 49 l24 19 -32 -12 c-17
-7 -29 -17 -26 -22 4 -6 -5 0 -20 13 -15 14 -24 31 -22 43 2 10 -2 21 -9 24
-14 5 -14 7 -22 79 -5 45 -3 54 20 76 32 33 149 63 179 47 13 -6 46 -8 85 -5
46 5 82 2 119 -9 30 -9 56 -14 59 -12 2 3 -23 12 -55 21 -33 9 -76 28 -97 42
-44 30 -65 33 -33 4 l24 -20 -27 17 c-16 9 -28 21 -28 26 0 5 -4 7 -8 4 -10
-6 -54 38 -70 69 -11 22 -1 100 15 116 5 5 35 14 66 20 l58 10 45 -48 45 -48
-36 48 c-19 27 -35 52 -36 55 0 4 -2 15 -4 25 -2 9 1 17 7 17 6 0 8 10 5 22
-5 16 3 31 29 56 34 33 37 34 92 27 31 -4 58 -8 58 -8 1 -1 6 -20 12 -42 l11
-40 -6 47 c-4 41 -1 52 27 95 51 75 80 93 74 46 l-4 -28 9 27 c5 14 12 31 16
37 8 14 42 14 50 1z m172 -322 c-3 -8 -6 -5 -6 6 -1 11 2 17 5 13 3 -3 4 -12
1 -19z m-10 -200 c-3 -8 -6 -5 -6 6 -1 11 2 17 5 13 3 -3 4 -12 1 -19z m33
-87 c-1 -13 -29 45 -29 59 0 8 6 0 14 -19 8 -18 15 -36 15 -40z m85 -73 c5 4
5 2 1 -5 -4 -7 4 -18 21 -26 37 -18 122 -39 133 -32 4 3 19 1 32 -4 17 -7 -1
-10 -68 -10 -50 -1 -106 -4 -125 -8 -28 -5 -30 -7 -14 -15 13 -5 8 -6 -15 -2
-27 4 -32 3 -20 -6 12 -9 10 -10 -9 -5 -16 5 -21 4 -17 -4 4 -6 5 -11 2 -11
-3 0 -8 4 -11 10 -3 5 18 21 47 36 29 14 55 28 57 30 3 3 -11 18 -30 35 -19
17 -25 26 -13 20 12 -6 25 -7 29 -3z m675 -8 c-37 -28 -125 -59 -205 -70 -80
-11 -242 -13 -231 -3 3 4 57 8 119 9 120 2 255 33 241 56 -4 7 -3 8 4 4 6 -4
24 0 39 8 41 22 63 20 33 -4z m20 -15 c0 -6 -56 -35 -67 -35 -4 1 8 9 27 20
39 22 40 22 40 15z m-113 -51 c-3 -3 -12 -4 -19 -1 -8 3 -5 6 6 6 11 1 17 -2
13 -5z m-44 -11 c-7 -2 -19 -2 -25 0 -7 3 -2 5 12 5 14 0 19 -2 13 -5z m-360
-10 c-29 -2 -78 -2 -110 0 -32 2 -8 3 52 3 61 0 87 -1 58 -3z m305 0 c-10 -2
-26 -2 -35 0 -10 3 -2 5 17 5 19 0 27 -2 18 -5z m-110 -10 c-15 -2 -42 -2 -60
0 -18 2 -6 4 27 4 33 0 48 -2 33 -4z m-472 -25 c4 -7 3 -8 -4 -4 -7 4 -12 2
-12 -5 0 -7 -3 -10 -6 -6 -6 5 3 27 11 27 2 0 7 -5 11 -12z m-36 -21 c0 -2
-12 -14 -27 -28 l-28 -24 24 28 c23 25 31 32 31 24z m-79 -124 c-12 -20 -14
-14 -5 12 4 9 9 14 11 11 3 -2 0 -13 -6 -23z m-24 -95 c-3 -8 -6 -5 -6 6 -1
11 2 17 5 13 3 -3 4 -12 1 -19z m-332 -208 c3 -6 -1 -7 -9 -4 -18 7 -21 14 -7
14 6 0 13 -4 16 -10z"/>
<path d="M2353 3135 c0 -33 2 -45 4 -27 2 18 2 45 0 60 -2 15 -4 0 -4 -33z"/>
<path d="M2441 3114 c0 -11 3 -14 6 -6 3 7 2 16 -1 19 -3 4 -6 -2 -5 -13z"/>
<path d="M2390 2686 c0 -3 9 -10 20 -16 11 -6 20 -8 20 -6 0 3 -9 10 -20 16
-11 6 -20 8 -20 6z"/>
<path d="M2560 2686 c0 -2 8 -10 18 -17 15 -13 16 -12 3 4 -13 16 -21 21 -21
13z"/>
<path d="M2600 2636 c0 -2 8 -10 18 -17 15 -13 16 -12 3 4 -13 16 -21 21 -21
13z"/>
<path d="M2560 2616 c0 -2 8 -10 18 -17 15 -13 16 -12 3 4 -13 16 -21 21 -21
13z"/>
<path d="M2528 2553 c7 -3 16 -2 19 1 4 3 -2 6 -13 5 -11 0 -14 -3 -6 -6z"/>
<path d="M2650 2550 c20 -13 33 -13 25 0 -3 6 -14 10 -23 10 -15 0 -15 -2 -2
-10z"/>
<path d="M1770 2466 c0 -2 8 -10 18 -17 15 -13 16 -12 3 4 -13 16 -21 21 -21
13z"/>
<path d="M2205 2364 l-50 -46 53 42 c45 36 59 51 50 50 -2 0 -25 -21 -53 -46z"/>
<path d="M2129 2283 c-13 -16 -12 -17 4 -4 9 7 17 15 17 17 0 8 -8 3 -21 -13z"/>
<path d="M1919 2253 c-13 -16 -12 -17 4 -4 9 7 17 15 17 17 0 8 -8 3 -21 -13z"/>
<path d="M951 1936 c-12 -15 4 -26 181 -126 59 -32 93 -36 93 -10 0 16 -219
149 -246 150 -9 0 -22 -6 -28 -14z"/>
<path d="M1527 1583 c-17 -16 -5 -33 23 -33 19 0 30 5 30 14 0 20 -39 34 -53
19z"/>
<path d="M1623 1533 c-7 -2 -13 -13 -13 -23 0 -31 58 -42 81 -14 11 14 10 18
-6 30 -19 14 -40 17 -62 7z"/>
</g>
</svg>
